<svg id="Starts" xmlns="http://www.w3.org/2000/svg" width="672" height="189" viewBox="0 0 672 189">
  <ellipse id="Elipse_1" data-name="Elipse 1" cx="0.338" cy="0.279" rx="0.338" ry="0.279" transform="translate(31.75 188.442)" fill="#c4c4c4"/>
  <ellipse id="Elipse_2" data-name="Elipse 2" cx="0.338" cy="0.279" rx="0.338" ry="0.279" transform="translate(54.043 149.576)" fill="#c4c4c4"/>
  <ellipse id="Elipse_3" data-name="Elipse 3" cx="0.338" cy="0.279" rx="0.338" ry="0.279" transform="translate(74.309 143.375)" fill="#c4c4c4"/>
  <ellipse id="Elipse_4" data-name="Elipse 4" cx="0.338" cy="0.279" rx="0.338" ry="0.279" transform="translate(165.627 119.29)" fill="#c4c4c4"/>
  <ellipse id="Elipse_5" data-name="Elipse 5" cx="0.676" cy="0.559" rx="0.676" ry="0.559" transform="translate(0 148.515)" fill="#c4c4c4"/>
  <ellipse id="Elipse_6" data-name="Elipse 6" cx="0.338" cy="0.279" rx="0.338" ry="0.279" transform="translate(158.69 145.043)" fill="#c4c4c4"/>
  <ellipse id="Elipse_7" data-name="Elipse 7" cx="0.338" cy="0.279" rx="0.338" ry="0.279" transform="translate(37.154 147.268)" fill="#c4c4c4"/>
  <ellipse id="Elipse_8" data-name="Elipse 8" cx="0.338" cy="0.279" rx="0.338" ry="0.279" transform="translate(167.826 149.133)" fill="#c4c4c4"/>
  <ellipse id="Elipse_9" data-name="Elipse 9" cx="0.338" cy="0.279" rx="0.338" ry="0.279" transform="translate(75.66 150.002)" fill="#c4c4c4"/>
  <ellipse id="Elipse_10" data-name="Elipse 10" cx="0.338" cy="0.279" rx="0.338" ry="0.279" transform="translate(92.548 146.472)" fill="#c4c4c4"/>
  <ellipse id="Elipse_11" data-name="Elipse 11" cx="0.676" cy="0.559" rx="0.676" ry="0.559" transform="translate(477.05 128.379)" fill="#c4c4c4"/>
  <ellipse id="Elipse_12" data-name="Elipse 12" cx="0.676" cy="0.559" rx="0.676" ry="0.559" transform="translate(472.709 149.966)" fill="#c4c4c4"/>
  <ellipse id="Elipse_13" data-name="Elipse 13" cx="0.676" cy="0.559" rx="0.676" ry="0.559" transform="translate(133.908 149.789)" fill="#c4c4c4"/>
  <ellipse id="Elipse_14" data-name="Elipse 14" cx="0.676" cy="0.559" rx="0.676" ry="0.559" transform="translate(305.157 127.333)" fill="#c4c4c4"/>
  <ellipse id="Elipse_15" data-name="Elipse 15" cx="0.676" cy="0.559" rx="0.676" ry="0.559" transform="translate(153.037 145.117)" fill="#c4c4c4"/>
  <ellipse id="Elipse_16" data-name="Elipse 16" cx="0.676" cy="0.559" rx="0.676" ry="0.559" transform="translate(135.033 148.249)" fill="#c4c4c4"/>
  <ellipse id="Elipse_17" data-name="Elipse 17" cx="0.676" cy="0.559" rx="0.676" ry="0.559" transform="translate(348.565 122.657)" fill="#c4c4c4"/>
  <ellipse id="Elipse_18" data-name="Elipse 18" cx="0.676" cy="0.559" rx="0.676" ry="0.559" transform="translate(97.277 144.68)" fill="#c4c4c4"/>
  <ellipse id="Elipse_19" data-name="Elipse 19" cx="0.676" cy="0.559" rx="0.676" ry="0.559" transform="translate(270.865 147.357)" fill="#c4c4c4"/>
  <ellipse id="Elipse_20" data-name="Elipse 20" cx="0.338" cy="0.279" rx="0.338" ry="0.279" transform="translate(312.214 124.026)" fill="#c4c4c4"/>
  <ellipse id="Elipse_21" data-name="Elipse 21" cx="0.338" cy="0.279" rx="0.338" ry="0.279" transform="translate(357.375 128.953)" fill="#c4c4c4"/>
  <ellipse id="Elipse_22" data-name="Elipse 22" cx="0.338" cy="0.279" rx="0.338" ry="0.279" transform="translate(521.948 127.992)" fill="#c4c4c4"/>
  <ellipse id="Elipse_23" data-name="Elipse 23" cx="0.338" cy="0.279" rx="0.338" ry="0.279" transform="translate(82.415 143.461)" fill="#c4c4c4"/>
  <ellipse id="Elipse_24" data-name="Elipse 24" cx="0.338" cy="0.279" rx="0.338" ry="0.279" transform="translate(501.106 145.38)" fill="#c4c4c4"/>
  <ellipse id="Elipse_25" data-name="Elipse 25" cx="0.338" cy="0.279" rx="0.338" ry="0.279" transform="translate(258.804 137.125)" fill="#c4c4c4"/>
  <ellipse id="Elipse_26" data-name="Elipse 26" cx="0.338" cy="0.279" rx="0.338" ry="0.279" transform="translate(501.976 176.147)" fill="#c4c4c4"/>
  <ellipse id="Elipse_27" data-name="Elipse 27" cx="0.338" cy="0.279" rx="0.338" ry="0.279" transform="translate(280.95 132.559)" fill="#c4c4c4"/>
  <ellipse id="Elipse_28" data-name="Elipse 28" cx="0.338" cy="0.279" rx="0.338" ry="0.279" transform="translate(277.91 124.627)" fill="#c4c4c4"/>
  <ellipse id="Elipse_29" data-name="Elipse 29" cx="0.676" cy="0.559" rx="0.676" ry="0.559" transform="translate(148.889 131.065)" fill="#c4c4c4"/>
  <ellipse id="Elipse_30" data-name="Elipse 30" cx="0.338" cy="0.279" rx="0.338" ry="0.279" transform="translate(167.826 177.821)" fill="#c4c4c4"/>
  <ellipse id="Elipse_31" data-name="Elipse 31" cx="0.338" cy="0.279" rx="0.338" ry="0.279" transform="translate(264.015 125.228)" fill="#c4c4c4"/>
  <ellipse id="Elipse_32" data-name="Elipse 32" cx="0.338" cy="0.279" rx="0.338" ry="0.279" transform="translate(250.119 123.184)" fill="#c4c4c4"/>
  <ellipse id="Elipse_33" data-name="Elipse 33" cx="0.338" cy="0.279" rx="0.338" ry="0.279" transform="translate(157.627 127.992)" fill="#c4c4c4"/>
  <ellipse id="Elipse_34" data-name="Elipse 34" cx="0.338" cy="0.279" rx="0.338" ry="0.279" transform="translate(153.285 123.305)" fill="#c4c4c4"/>
  <ellipse id="Elipse_35" data-name="Elipse 35" cx="0.338" cy="0.279" rx="0.338" ry="0.279" transform="translate(146.873 125.588)" fill="#c4c4c4"/>
  <ellipse id="Elipse_36" data-name="Elipse 36" cx="0.338" cy="0.279" rx="0.338" ry="0.279" transform="translate(151.548 127.15)" fill="#c4c4c4"/>
  <ellipse id="Elipse_37" data-name="Elipse 37" cx="0.676" cy="0.559" rx="0.676" ry="0.559" transform="translate(523.332 123.976)" fill="#c4c4c4"/>
  <ellipse id="Elipse_38" data-name="Elipse 38" cx="0.338" cy="0.279" rx="0.338" ry="0.279" transform="translate(497.199 149.335)" fill="#c4c4c4"/>
  <ellipse id="Elipse_39" data-name="Elipse 39" cx="0.676" cy="0.559" rx="0.676" ry="0.559" transform="translate(140.174 43.307)" fill="#c4c4c4"/>
  <ellipse id="Elipse_40" data-name="Elipse 40" cx="0.676" cy="0.559" rx="0.676" ry="0.559" transform="translate(104.033 43.956)" fill="#c4c4c4"/>
  <ellipse id="Elipse_41" data-name="Elipse 41" cx="0.338" cy="0.279" rx="0.338" ry="0.279" transform="translate(64.851 57.446)" fill="#c4c4c4"/>
  <ellipse id="Elipse_42" data-name="Elipse 42" cx="0.338" cy="0.279" rx="0.338" ry="0.279" transform="translate(156.1 62.013)" fill="#c4c4c4"/>
  <ellipse id="Elipse_43" data-name="Elipse 43" cx="0.338" cy="0.279" rx="0.338" ry="0.279" transform="translate(136.506 58.888)" fill="#c4c4c4"/>
  <ellipse id="Elipse_44" data-name="Elipse 44" cx="0.676" cy="0.559" rx="0.676" ry="0.559" transform="translate(137.846 66.185)" fill="#c4c4c4"/>
  <ellipse id="Elipse_45" data-name="Elipse 45" cx="0.338" cy="0.279" rx="0.338" ry="0.279" transform="translate(140.991 60.931)" fill="#c4c4c4"/>
  <ellipse id="Elipse_46" data-name="Elipse 46" cx="0.338" cy="0.279" rx="0.338" ry="0.279" transform="translate(160.497 39.901)" fill="#c4c4c4"/>
  <ellipse id="Elipse_47" data-name="Elipse 47" cx="0.338" cy="0.279" rx="0.338" ry="0.279" transform="translate(161.963 46.269)" fill="#c4c4c4"/>
  <ellipse id="Elipse_48" data-name="Elipse 48" cx="0.338" cy="0.279" rx="0.338" ry="0.279" transform="translate(66.202 42.424)" fill="#c4c4c4"/>
  <ellipse id="Elipse_49" data-name="Elipse 49" cx="0.338" cy="0.279" rx="0.338" ry="0.279" transform="translate(61.474 38.48)" fill="#c4c4c4"/>
  <ellipse id="Elipse_50" data-name="Elipse 50" cx="0.338" cy="0.279" rx="0.338" ry="0.279" transform="translate(61.474 42.275)" fill="#c4c4c4"/>
  <ellipse id="Elipse_51" data-name="Elipse 51" cx="0.338" cy="0.279" rx="0.338" ry="0.279" transform="translate(153.901 42.806)" fill="#c4c4c4"/>
  <ellipse id="Elipse_52" data-name="Elipse 52" cx="0.338" cy="0.279" rx="0.338" ry="0.279" transform="translate(524.759 150.225)" fill="#c4c4c4"/>
  <ellipse id="Elipse_53" data-name="Elipse 53" cx="0.676" cy="0.559" rx="0.676" ry="0.559" transform="translate(527.839 136.206)" fill="#c4c4c4"/>
  <ellipse id="Elipse_54" data-name="Elipse 54" cx="0.338" cy="0.279" rx="0.338" ry="0.279" transform="translate(158.69 145.057)" fill="#c4c4c4"/>
  <ellipse id="Elipse_55" data-name="Elipse 55" cx="0.676" cy="0.559" rx="0.676" ry="0.559" transform="translate(139.339 142.321)" fill="#c4c4c4"/>
  <ellipse id="Elipse_56" data-name="Elipse 56" cx="0.338" cy="0.279" rx="0.338" ry="0.279" transform="translate(162.63 140.611)" fill="#c4c4c4"/>
  <ellipse id="Elipse_57" data-name="Elipse 57" cx="0.676" cy="0.559" rx="0.676" ry="0.559" transform="translate(212.698 139.443)" fill="#c4c4c4"/>
  <ellipse id="Elipse_58" data-name="Elipse 58" cx="0.676" cy="0.559" rx="0.676" ry="0.559" transform="translate(260.447 128.412)" fill="#c4c4c4"/>
  <ellipse id="Elipse_59" data-name="Elipse 59" cx="0.676" cy="0.559" rx="0.676" ry="0.559" transform="translate(60.123 122.537)" fill="#c4c4c4"/>
  <ellipse id="Elipse_60" data-name="Elipse 60" cx="0.338" cy="0.279" rx="0.338" ry="0.279" transform="translate(661.868 135.174)" fill="#c4c4c4"/>
  <ellipse id="Elipse_61" data-name="Elipse 61" cx="0.676" cy="0.559" rx="0.676" ry="0.559" transform="translate(12.835 144.359)" fill="#c4c4c4"/>
  <ellipse id="Elipse_62" data-name="Elipse 62" cx="0.338" cy="0.279" rx="0.338" ry="0.279" transform="translate(660.521 188.442)" fill="#c4c4c4"/>
  <ellipse id="Elipse_63" data-name="Elipse 63" cx="0.676" cy="0.559" rx="0.676" ry="0.559" transform="translate(43.234 70.381)" fill="#c4c4c4"/>
  <ellipse id="Elipse_64" data-name="Elipse 64" cx="0.676" cy="0.559" rx="0.676" ry="0.559" transform="translate(36.479 65.705)" fill="#c4c4c4"/>
  <ellipse id="Elipse_65" data-name="Elipse 65" cx="0.338" cy="0.279" rx="0.338" ry="0.279" transform="translate(35.803 112.008)" fill="#c4c4c4"/>
  <ellipse id="Elipse_66" data-name="Elipse 66" cx="0.338" cy="0.279" rx="0.338" ry="0.279" transform="translate(93.899 122.463)" fill="#c4c4c4"/>
  <ellipse id="Elipse_67" data-name="Elipse 67" cx="0.338" cy="0.279" rx="0.338" ry="0.279" transform="translate(144.06 113.45)" fill="#c4c4c4"/>
  <ellipse id="Elipse_68" data-name="Elipse 68" cx="0.676" cy="0.559" rx="0.676" ry="0.559" transform="translate(146.157 126.494)" fill="#c4c4c4"/>
  <ellipse id="Elipse_69" data-name="Elipse 69" cx="0.338" cy="0.279" rx="0.338" ry="0.279" transform="translate(61.474 121.382)" fill="#c4c4c4"/>
  <ellipse id="Elipse_70" data-name="Elipse 70" cx="0.338" cy="0.279" rx="0.338" ry="0.279" transform="translate(74.309 67.902)" fill="#c4c4c4"/>
  <ellipse id="Elipse_71" data-name="Elipse 71" cx="0.338" cy="0.279" rx="0.338" ry="0.279" transform="translate(492.857 99.148)" fill="#c4c4c4"/>
  <ellipse id="Elipse_72" data-name="Elipse 72" cx="0.676" cy="0.559" rx="0.676" ry="0.559" transform="translate(475.749 103.234)" fill="#c4c4c4"/>
  <ellipse id="Elipse_73" data-name="Elipse 73" cx="0.338" cy="0.279" rx="0.338" ry="0.279" transform="translate(472.011 98.067)" fill="#c4c4c4"/>
  <ellipse id="Elipse_74" data-name="Elipse 74" cx="0.338" cy="0.279" rx="0.338" ry="0.279" transform="translate(442.919 79.559)" fill="#c4c4c4"/>
  <ellipse id="Elipse_75" data-name="Elipse 75" cx="0.338" cy="0.279" rx="0.338" ry="0.279" transform="translate(401.666 79.319)" fill="#c4c4c4"/>
  <ellipse id="Elipse_76" data-name="Elipse 76" cx="0.338" cy="0.279" rx="0.338" ry="0.279" transform="translate(397.324 74.632)" fill="#c4c4c4"/>
  <ellipse id="Elipse_77" data-name="Elipse 77" cx="0.338" cy="0.279" rx="0.338" ry="0.279" transform="translate(395.587 78.478)" fill="#c4c4c4"/>
  <ellipse id="Elipse_78" data-name="Elipse 78" cx="0.338" cy="0.279" rx="0.338" ry="0.279" transform="translate(356.506 91.217)" fill="#c4c4c4"/>
  <ellipse id="Elipse_79" data-name="Elipse 79" cx="0.338" cy="0.279" rx="0.338" ry="0.279" transform="translate(357.375 100.711)" fill="#c4c4c4"/>
  <ellipse id="Elipse_80" data-name="Elipse 80" cx="0.676" cy="0.559" rx="0.676" ry="0.559" transform="translate(428.001 107.43)" fill="#c4c4c4"/>
  <ellipse id="Elipse_81" data-name="Elipse 81" cx="0.676" cy="0.559" rx="0.676" ry="0.559" transform="translate(423.66 102.754)" fill="#c4c4c4"/>
  <ellipse id="Elipse_82" data-name="Elipse 82" cx="0.338" cy="0.279" rx="0.338" ry="0.279" transform="translate(448.13 105.037)" fill="#c4c4c4"/>
  <ellipse id="Elipse_83" data-name="Elipse 83" cx="0.338" cy="0.279" rx="0.338" ry="0.279" transform="translate(137.045 96.144)" fill="#c4c4c4"/>
  <ellipse id="Elipse_84" data-name="Elipse 84" cx="0.338" cy="0.279" rx="0.338" ry="0.279" transform="translate(43.234 92.298)" fill="#c4c4c4"/>
  <ellipse id="Elipse_85" data-name="Elipse 85" cx="0.338" cy="0.279" rx="0.338" ry="0.279" transform="translate(38.505 84.366)" fill="#c4c4c4"/>
  <ellipse id="Elipse_86" data-name="Elipse 86" cx="0.338" cy="0.279" rx="0.338" ry="0.279" transform="translate(241.434 85.328)" fill="#c4c4c4"/>
  <ellipse id="Elipse_87" data-name="Elipse 87" cx="0.338" cy="0.279" rx="0.338" ry="0.279" transform="translate(321.333 119.339)" fill="#c4c4c4"/>
  <ellipse id="Elipse_88" data-name="Elipse 88" cx="0.338" cy="0.279" rx="0.338" ry="0.279" transform="translate(358.678 129.794)" fill="#c4c4c4"/>
  <ellipse id="Elipse_89" data-name="Elipse 89" cx="0.338" cy="0.279" rx="0.338" ry="0.279" transform="translate(535.41 120.781)" fill="#c4c4c4"/>
  <ellipse id="Elipse_90" data-name="Elipse 90" cx="0.338" cy="0.279" rx="0.338" ry="0.279" transform="translate(379.521 103.475)" fill="#c4c4c4"/>
  <ellipse id="Elipse_91" data-name="Elipse 91" cx="0.338" cy="0.279" rx="0.338" ry="0.279" transform="translate(326.11 99.629)" fill="#c4c4c4"/>
  <ellipse id="Elipse_92" data-name="Elipse 92" cx="0.338" cy="0.279" rx="0.338" ry="0.279" transform="translate(323.07 91.697)" fill="#c4c4c4"/>
  <ellipse id="Elipse_93" data-name="Elipse 93" cx="0.338" cy="0.279" rx="0.338" ry="0.279" transform="translate(284.858 99.389)" fill="#c4c4c4"/>
  <ellipse id="Elipse_94" data-name="Elipse 94" cx="0.338" cy="0.279" rx="0.338" ry="0.279" transform="translate(278.779 98.548)" fill="#c4c4c4"/>
  <ellipse id="Elipse_95" data-name="Elipse 95" cx="0.338" cy="0.279" rx="0.338" ry="0.279" transform="translate(198.879 94.582)" fill="#c4c4c4"/>
  <ellipse id="Elipse_96" data-name="Elipse 96" cx="0.676" cy="0.559" rx="0.676" ry="0.559" transform="translate(289.096 116.183)" fill="#c4c4c4"/>
  <ellipse id="Elipse_97" data-name="Elipse 97" cx="0.338" cy="0.279" rx="0.338" ry="0.279" transform="translate(527.596 140.37)" fill="#c4c4c4"/>
  <ellipse id="Elipse_98" data-name="Elipse 98" cx="0.338" cy="0.279" rx="0.338" ry="0.279" transform="translate(528.461 149.864)" fill="#c4c4c4"/>
  <ellipse id="Elipse_99" data-name="Elipse 99" cx="0.676" cy="0.559" rx="0.676" ry="0.559" transform="translate(522.597 149.635)" fill="#c4c4c4"/>
  <ellipse id="Elipse_100" data-name="Elipse 100" cx="0.676" cy="0.559" rx="0.676" ry="0.559" transform="translate(14.186 37.643)" fill="#c4c4c4"/>
  <ellipse id="Elipse_101" data-name="Elipse 101" cx="0.676" cy="0.559" rx="0.676" ry="0.559" transform="translate(470.974 143.76)" fill="#c4c4c4"/>
  <ellipse id="Elipse_102" data-name="Elipse 102" cx="0.676" cy="0.559" rx="0.676" ry="0.559" transform="translate(487.902 141.361)" fill="#c4c4c4"/>
  <ellipse id="Elipse_103" data-name="Elipse 103" cx="0.676" cy="0.559" rx="0.676" ry="0.559" transform="translate(217.907 44.123)" fill="#c4c4c4"/>
  <ellipse id="Elipse_104" data-name="Elipse 104" cx="0.676" cy="0.559" rx="0.676" ry="0.559" transform="translate(213.566 39.447)" fill="#c4c4c4"/>
  <ellipse id="Elipse_105" data-name="Elipse 105" cx="0.338" cy="0.279" rx="0.338" ry="0.279" transform="translate(276.607 70.305)" fill="#c4c4c4"/>
  <ellipse id="Elipse_106" data-name="Elipse 106" cx="0.338" cy="0.279" rx="0.338" ry="0.279" transform="translate(241.868 38.655)" fill="#c4c4c4"/>
  <ellipse id="Elipse_107" data-name="Elipse 107" cx="0.338" cy="0.279" rx="0.338" ry="0.279" transform="translate(242.737 57.686)" fill="#c4c4c4"/>
  <ellipse id="Elipse_108" data-name="Elipse 108" cx="0.338" cy="0.279" rx="0.338" ry="0.279" transform="translate(237.96 40.697)" fill="#c4c4c4"/>
  <ellipse id="Elipse_109" data-name="Elipse 109" cx="0.676" cy="0.559" rx="0.676" ry="0.559" transform="translate(300.382 43.164)" fill="#c4c4c4"/>
  <ellipse id="Elipse_110" data-name="Elipse 110" cx="0.676" cy="0.559" rx="0.676" ry="0.559" transform="translate(334.674 61.509)" fill="#c4c4c4"/>
  <ellipse id="Elipse_111" data-name="Elipse 111" cx="0.676" cy="0.559" rx="0.676" ry="0.559" transform="translate(211.83 59.505)" fill="#c4c4c4"/>
  <ellipse id="Elipse_112" data-name="Elipse 112" cx="0.676" cy="0.559" rx="0.676" ry="0.559" transform="translate(228.759 50.557)" fill="#c4c4c4"/>
  <ellipse id="Elipse_113" data-name="Elipse 113" cx="0.676" cy="0.559" rx="0.676" ry="0.559" transform="translate(473.144 129.971)" fill="#c4c4c4"/>
  <ellipse id="Elipse_114" data-name="Elipse 114" cx="0.338" cy="0.279" rx="0.338" ry="0.279" transform="translate(532.087 149.795)" fill="#c4c4c4"/>
  <ellipse id="Elipse_115" data-name="Elipse 115" cx="0.676" cy="0.559" rx="0.676" ry="0.559" transform="translate(530.88 123.976)" fill="#c4c4c4"/>
  <ellipse id="Elipse_116" data-name="Elipse 116" cx="0.338" cy="0.279" rx="0.338" ry="0.279" transform="translate(671.324 150.238)" fill="#c4c4c4"/>
  <ellipse id="Elipse_117" data-name="Elipse 117" cx="0.338" cy="0.279" rx="0.338" ry="0.279" transform="translate(502.038 149.494)" fill="#c4c4c4"/>
  <ellipse id="Elipse_118" data-name="Elipse 118" cx="0.676" cy="0.559" rx="0.676" ry="0.559" transform="translate(510.041 122.897)" fill="#c4c4c4"/>
  <ellipse id="Elipse_119" data-name="Elipse 119" cx="0.676" cy="0.559" rx="0.676" ry="0.559" transform="translate(578.777 130.211)" fill="#c4c4c4"/>
  <ellipse id="Elipse_120" data-name="Elipse 120" cx="0.338" cy="0.279" rx="0.338" ry="0.279" transform="translate(219.288 5.59)" fill="#c4c4c4"/>
  <ellipse id="Elipse_121" data-name="Elipse 121" cx="0.338" cy="0.279" rx="0.338" ry="0.279" transform="translate(181.076 44.205)" fill="#c4c4c4"/>
  <ellipse id="Elipse_122" data-name="Elipse 122" cx="0.338" cy="0.279" rx="0.338" ry="0.279" transform="translate(136.784 39.82)" fill="#c4c4c4"/>
  <ellipse id="Elipse_123" data-name="Elipse 123" cx="0.338" cy="0.279" rx="0.338" ry="0.279" transform="translate(174.996 40.023)" fill="#c4c4c4"/>
  <ellipse id="Elipse_124" data-name="Elipse 124" cx="0.338" cy="0.279" rx="0.338" ry="0.279" transform="translate(135.915 38.205)" fill="#c4c4c4"/>
  <ellipse id="Elipse_125" data-name="Elipse 125" cx="0.676" cy="0.559" rx="0.676" ry="0.559" transform="translate(162.709 40.561)" fill="#c4c4c4"/>
  <ellipse id="Elipse_126" data-name="Elipse 126" cx="0.338" cy="0.279" rx="0.338" ry="0.279" transform="translate(142.863)" fill="#c4c4c4"/>
  <ellipse id="Elipse_127" data-name="Elipse 127" cx="0.338" cy="0.279" rx="0.338" ry="0.279" transform="translate(437.708 55.283)" fill="#c4c4c4"/>
  <ellipse id="Elipse_128" data-name="Elipse 128" cx="0.338" cy="0.279" rx="0.338" ry="0.279" transform="translate(452.038 38.078)" fill="#c4c4c4"/>
  <ellipse id="Elipse_129" data-name="Elipse 129" cx="0.676" cy="0.559" rx="0.676" ry="0.559" transform="translate(400.654 43.465)" fill="#c4c4c4"/>
  <ellipse id="Elipse_130" data-name="Elipse 130" cx="0.676" cy="0.559" rx="0.676" ry="0.559" transform="translate(417.149 44.483)" fill="#c4c4c4"/>
  <ellipse id="Elipse_131" data-name="Elipse 131" cx="0.676" cy="0.559" rx="0.676" ry="0.559" transform="translate(535.22 42.038)" fill="#c4c4c4"/>
  <ellipse id="Elipse_132" data-name="Elipse 132" cx="0.676" cy="0.559" rx="0.676" ry="0.559" transform="translate(521.328 39.341)" fill="#c4c4c4"/>
  <ellipse id="Elipse_133" data-name="Elipse 133" cx="0.676" cy="0.559" rx="0.676" ry="0.559" transform="translate(479.655 43.016)" fill="#c4c4c4"/>
  <ellipse id="Elipse_134" data-name="Elipse 134" cx="0.338" cy="0.279" rx="0.338" ry="0.279" transform="translate(530.632 57.326)" fill="#c4c4c4"/>
  <ellipse id="Elipse_135" data-name="Elipse 135" cx="0.676" cy="0.559" rx="0.676" ry="0.559" transform="translate(425.397 42.95)" fill="#c4c4c4"/>
</svg>
