<svg xmlns="http://www.w3.org/2000/svg" xmlns:xlink="http://www.w3.org/1999/xlink" width="26" height="26" viewBox="0 0 26 26">
  <defs>
    <linearGradient id="linear-gradient" x1="0.5" x2="0.5" y2="1" gradientUnits="objectBoundingBox">
      <stop offset="0" stop-color="#069696"/>
      <stop offset="1" stop-color="#553bb8"/>
    </linearGradient>
  </defs>
  <g id="Vector-1" transform="translate(-0.688 -0.667)">
    <path id="Caminho_452" data-name="Caminho 452" d="M24.8,13.425A11.126,11.126,0,1,1,13.677,2.32,11.116,11.116,0,0,1,24.8,13.425Z" transform="translate(0)" fill="url(#linear-gradient)"/>
    <path id="Caminho_453" data-name="Caminho 453" d="M6.194,2.658c-.847.81-.692,2.74-.508,3.559a16.107,16.107,0,0,1,7.583-3.77A3.62,3.62,0,0,0,10.346.667,6.617,6.617,0,0,0,6.194,2.658Z" transform="translate(-0.16)" fill="url(#linear-gradient)"/>
    <path id="Caminho_454" data-name="Caminho 454" d="M2.075,20.2c.676.958,2.607,1.091,3.444,1.031a16.107,16.107,0,0,1-2.6-8.059A3.621,3.621,0,0,0,.722,15.8,6.617,6.617,0,0,0,2.075,20.2Z" transform="translate(0 -0.448)" fill="url(#linear-gradient)"/>
    <path id="Caminho_455" data-name="Caminho 455" d="M27.309,12.457c-.031,1.172-1.564,2.353-2.294,2.767a16.108,16.108,0,0,0-2.3-8.15,3.621,3.621,0,0,1,3.282.97A6.617,6.617,0,0,1,27.309,12.457Z" transform="translate(-0.624 -0.229)" fill="url(#linear-gradient)"/>
    <path id="Caminho_456" data-name="Caminho 456" d="M11.912,26.942c-1.118-.352-1.832-2.151-2.03-2.967A16.107,16.107,0,0,0,18.351,24a3.621,3.621,0,0,1-1.835,2.889A6.616,6.616,0,0,1,11.912,26.942Z" transform="translate(-0.316 -0.667)" fill="url(#linear-gradient)"/>
  </g>
</svg>
