<svg xmlns="http://www.w3.org/2000/svg" xmlns:xlink="http://www.w3.org/1999/xlink" width="26" height="23" viewBox="0 0 26 23">
  <defs>
    <linearGradient id="linear-gradient" x1="0.5" x2="0.5" y2="1" gradientUnits="objectBoundingBox">
      <stop offset="0" stop-color="#069696"/>
      <stop offset="1" stop-color="#553bb8"/>
    </linearGradient>
  </defs>
  <path id="Vector-3" d="M15.292,23.376A9.469,9.469,0,0,1,10.4,22.054a9.864,9.864,0,0,1-4.862-8.535,6.366,6.366,0,0,1,1.9-4.646,6.228,6.228,0,0,1,4.6-1.925,5.051,5.051,0,0,1,1.981.488,5.823,5.823,0,0,1,2.006,1.476,3.148,3.148,0,0,1,.889,2.143,5.908,5.908,0,0,1-.279,2.156,3.245,3.245,0,0,0,1.371-1.194,3.173,3.173,0,0,0,.533-1.784,6.366,6.366,0,0,0-1.9-4.646,6.229,6.229,0,0,0-4.6-1.925,7.861,7.861,0,0,0-4.075,1.1A8.172,8.172,0,0,0,5.008,7.756a8.081,8.081,0,0,0-1.092,4.12,17.17,17.17,0,0,0,.952,5.853,10.892,10.892,0,0,0,2.3,4,8.956,8.956,0,0,1-5.015-3.568A11.778,11.778,0,0,1,.667,11.876a11.348,11.348,0,0,1,.9-4.467A11.562,11.562,0,0,1,3.993,3.739,11.42,11.42,0,0,1,7.624,1.287,11.016,11.016,0,0,1,12.042.376,9.469,9.469,0,0,1,16.929,1.7a9.863,9.863,0,0,1,4.862,8.535,6.366,6.366,0,0,1-1.9,4.646,6.229,6.229,0,0,1-4.6,1.925,5.05,5.05,0,0,1-1.981-.488,5.822,5.822,0,0,1-2.006-1.476,3.149,3.149,0,0,1-.889-2.143,5.908,5.908,0,0,1,.279-2.156,3.245,3.245,0,0,0-1.371,1.194,3.173,3.173,0,0,0-.533,1.784,6.366,6.366,0,0,0,1.9,4.646,6.228,6.228,0,0,0,4.6,1.925,7.861,7.861,0,0,0,4.075-1.1A8.172,8.172,0,0,0,22.325,16a8.082,8.082,0,0,0,1.092-4.12,17.2,17.2,0,0,0-.952-5.84,10.886,10.886,0,0,0-2.3-4.017,8.956,8.956,0,0,1,5.015,3.568,11.779,11.779,0,0,1,1.485,6.289,11.349,11.349,0,0,1-.9,4.467,11.566,11.566,0,0,1-2.425,3.671,11.42,11.42,0,0,1-3.631,2.451A11.015,11.015,0,0,1,15.292,23.376Z" transform="translate(-0.667 -0.376)" fill="url(#linear-gradient)"/>
</svg>
