<svg xmlns="http://www.w3.org/2000/svg" xmlns:xlink="http://www.w3.org/1999/xlink" width="26" height="25" viewBox="0 0 26 25">
  <defs>
    <linearGradient id="linear-gradient" x1="0.5" x2="0.5" y2="1" gradientUnits="objectBoundingBox">
      <stop offset="0" stop-color="#069696"/>
      <stop offset="1" stop-color="#553bb8"/>
    </linearGradient>
  </defs>
  <path id="Vector" d="M17.841,18.01c6.071-5.583,10.775-12.919,8.017-16.136A3.832,3.832,0,0,0,22.45.526,6.588,6.588,0,0,0,19.076,2.16a11.456,11.456,0,0,0-11.531.387A11.956,11.956,0,0,0,4.093,5.762a12.42,12.42,0,0,0-1.987,4.345,12.6,12.6,0,0,0,.405,7.3C1.1,19.056-.208,22.447,1.422,24.347A3.563,3.563,0,0,0,4.264,25.5C7.847,25.5,13.275,22.211,17.841,18.01Zm4.9-14.76a1.224,1.224,0,0,1,1.14.443c.306.358.224,1.3-.334,2.644A12.3,12.3,0,0,0,21.4,3.8,3.39,3.39,0,0,1,22.737,3.25ZM3.9,20.115A12.171,12.171,0,0,0,5.976,22.5c-1.357.415-2.269.388-2.574.029C3.115,22.192,3.4,21.06,3.9,20.115ZM25.489,12.07a40.1,40.1,0,0,1-6.324,7.311,38.46,38.46,0,0,1-8.008,5.76,11.276,11.276,0,0,0,8.59-1.467,12.057,12.057,0,0,0,4.49-4.943A12.6,12.6,0,0,0,25.489,12.07Z" transform="translate(-0.667 -0.5)" fill="url(#linear-gradient)"/>
</svg>
